<?xml version="1.0" encoding="iso-8859-1"?>
<!-- Generator: Adobe Illustrator 19.0.0, SVG Export Plug-In . SVG Version: 6.00 Build 0)  -->
<svg version="1.1" id="Layer_1" xmlns="http://www.w3.org/2000/svg" xmlns:xlink="http://www.w3.org/1999/xlink" x="0px" y="0px"
	 viewBox="0 0 512 512" style="enable-background:new 0 0 512 512;" xml:space="preserve">
<path style="fill:#408BAF;" d="M460.8,15.04h-87.771c-12.117,0-21.943,9.826-21.943,21.943v87.771
	c0,12.12,9.826,21.943,21.943,21.943h21.943v132.389h43.886V146.697H460.8c12.12,0,21.943-9.823,21.943-21.943V36.983
	C482.743,24.866,472.92,15.04,460.8,15.04z"/>
<path style="fill:#387896;" d="M460.8,15.04h-43.886v264.046h21.943V146.697H460.8c12.12,0,21.943-9.823,21.943-21.943V36.983
	C482.743,24.866,472.92,15.04,460.8,15.04z"/>
<path style="fill:#408BAF;" d="M204.8,16.296c-6.717-2.376-14.166-1.341-19.983,2.772c-5.818,4.112-9.275,10.793-9.275,17.916
	v102.214h-43.886V36.982c0-7.123-3.457-13.804-9.275-17.916c-5.813-4.112-13.265-5.146-19.983-2.771
	C41.152,37.948,0,96.157,0,161.14c0,54.042,27.699,103.011,73.143,130.86v124.502c0,44.363,36.095,80.457,80.457,80.457
	c44.366,0,80.457-36.092,80.457-80.454V291.997c45.442-27.845,73.143-76.815,73.143-130.857
	C307.2,96.157,266.048,37.948,204.8,16.296z"/>
<path style="fill:#EEB784;" d="M512,279.082c0-12.117-9.823-21.94-21.943-21.94h-14.623c-0.003,0-0.003,0-0.006,0h-58.514
	l-73.143,0.003c-12.117,0-21.943,9.823-21.943,21.943c0,9.548,6.112,17.651,14.629,20.666v116.749
	c0,44.363,36.095,80.457,80.457,80.457c44.366,0,80.457-36.092,80.457-80.454V299.753C505.888,296.738,512,288.635,512,279.082z"/>
<path style="fill:#E68842;" d="M490.057,257.142h-14.623c-0.003,0-0.003,0-0.006,0h-58.514V496.96
	c44.366,0,80.457-36.092,80.457-80.454V299.753c8.517-3.015,14.629-11.118,14.629-20.669
	C512,266.966,502.177,257.142,490.057,257.142z"/>
<path style="fill:#387896;" d="M204.8,16.296c-6.717-2.376-14.166-1.341-19.983,2.772c-5.818,4.112-9.275,10.793-9.275,17.916
	v102.214H153.6V496.96c44.366,0,80.457-36.092,80.457-80.454V291.998c45.442-27.845,73.143-76.815,73.143-130.857
	C307.2,96.157,266.048,37.948,204.8,16.296z"/>
<g>
</g>
<g>
</g>
<g>
</g>
<g>
</g>
<g>
</g>
<g>
</g>
<g>
</g>
<g>
</g>
<g>
</g>
<g>
</g>
<g>
</g>
<g>
</g>
<g>
</g>
<g>
</g>
<g>
</g>
</svg>
